<svg xmlns="http://www.w3.org/2000/svg" viewBox="0 0 474.18 794.03"><defs><style>.cls-1,.cls-6{fill:#d3e3ff;}.cls-2,.cls-5{fill:#8bb6ff;}.cls-3{fill:none;stroke-width:14.32px;}.cls-3,.cls-5{stroke:#5997ff;stroke-miterlimit:10;}.cls-4{fill:#5997ff;}.cls-5{stroke-width:7.29px;}.cls-6{font-size:42px;font-family:MyriadPro-Bold, Myriad Pro;font-weight:700;}</style></defs><g id="Layer_2" data-name="Layer 2"><g id="Certification_Process" data-name="Certification Process"><rect class="cls-1" x="7.16" y="151.59" width="459.85" height="512.12"/><polygon class="cls-2" points="237.09 570.78 216.86 609.12 174.15 616.51 204.36 647.59 198.19 690.5 237.09 671.37 275.99 690.5 269.82 647.59 300.03 616.51 257.31 609.12 237.09 570.78"/><path class="cls-2" d="M237.41,677.45l-16.08,6.74L189,792.66c11.85-2.46,21.91-7.38,28-14a28.9,28.9,0,0,1,40.88,0c6.1,6.64,16.16,11.56,28,14L253.5,684.19Z"/><polygon class="cls-3" points="237.09 674.77 193 696.44 200 647.82 165.76 612.59 214.16 604.22 237.09 560.77 260.01 604.22 308.42 612.59 274.18 647.82 281.17 696.44 237.09 674.77"/><path class="cls-3" d="M217.49,685.92l-25.66,101h1.46c16.3,0,30.51-6.47,38.05-16.09a7.3,7.3,0,0,1,11.49,0c7.55,9.62,21.75,16.09,38.06,16.09h1.45l-25.65-101"/><polygon class="cls-4" points="474.18 669.1 277.24 669.1 275.18 654.78 459.85 654.78 459.85 158.75 14.32 158.75 14.32 654.78 198.88 654.78 196.94 669.1 0 669.1 0 144.42 474.18 144.42 474.18 669.1"/><rect class="cls-4" x="123.3" y="267.32" width="227.58" height="14.32"/><rect class="cls-4" x="123.3" y="324.51" width="227.58" height="14.32"/><rect class="cls-4" x="185.12" y="381.7" width="103.94" height="14.32"/><rect class="cls-4" x="46.26" y="194.19" width="19.94" height="14.32" transform="translate(-125.91 98.74) rotate(-45)"/><rect class="cls-4" x="47.26" y="604.87" width="19.94" height="14.32" transform="translate(-416.03 219.75) rotate(-45)"/><rect class="cls-4" x="406.1" y="606.86" width="19.94" height="14.32" transform="translate(-312.31 473.99) rotate(-45)"/><rect class="cls-4" x="405.11" y="197.18" width="19.94" height="14.32" transform="translate(-22.93 353.34) rotate(-45)"/><rect class="cls-1" x="38.59" y="46.53" width="397" height="8.01"/><rect class="cls-5" x="4" y="3.65" width="93.78" height="93.78" rx="46.89"/><rect class="cls-5" x="376.51" y="3.65" width="93.78" height="93.78" rx="46.89"/><rect class="cls-5" x="190.26" y="3.65" width="93.78" height="93.78" rx="46.89"/><text class="cls-6" transform="translate(39.25 65.23)">1</text><text class="cls-6" transform="translate(225.51 65.23)">2</text><text class="cls-6" transform="translate(411.77 65.23)">3</text></g></g></svg>