<svg xmlns="http://www.w3.org/2000/svg" viewBox="0 0 386.38 236.15"><defs><style>.cls-1{fill:#5997ff;}.cls-2{fill:#8bb6ff;}.cls-3{fill:#d3e3ff;}</style></defs><g id="Layer_2" data-name="Layer 2"><g id="Credit_Transfer" data-name="Credit Transfer"><path class="cls-1" d="M3.54,52.77A38.89,38.89,0,0,0,20.44,57c7,0,10.69-2.9,10.69-7.29,0-4.2-3.2-6.6-11.29-9.5C8.64,36.28,1.35,30.09,1.35,20.29,1.35,8.8,10.94,0,26.83,0A41.21,41.21,0,0,1,44,3.4L40.63,15.69a32,32,0,0,0-14.1-3.2c-6.59,0-9.79,3-9.79,6.5,0,4.3,3.8,6.2,12.49,9.5,11.9,4.39,17.49,10.59,17.49,20.09,0,11.29-8.69,20.89-27.18,20.89-7.7,0-15.3-2-19.09-4.1Z"/><path class="cls-1" d="M67.91,68.47,51.92,1.1H68.21l5.1,27.79c1.5,8,2.89,16.69,4,23.48h.2c1.1-7.29,2.7-15.39,4.4-23.68L87.6,1.1h16.19l5.4,28.39c1.5,7.89,2.6,15.09,3.6,22.58h.2c1-7.49,2.5-15.39,3.89-23.38l5.5-27.59h15.49L120.48,68.47H104l-5.7-29C97,32.68,95.9,26.39,95.1,18.69h-.2c-1.2,7.6-2.3,14-3.9,20.79l-6.4,29Z"/><path class="cls-1" d="M156.06,51.17l-4.8,17.3H135.47L156.06,1.1h20l20.89,67.37H180.55l-5.2-17.3Zm17.09-11.39L169,25.49c-1.2-4-2.4-9-3.39-13h-.2c-1,4-2,9.1-3.1,13l-4,14.29Z"/><path class="cls-1" d="M212,68.47V40.88L190.74,1.1h17.39L215,17.29c2.1,4.9,3.5,8.5,5.2,12.9h.2c1.5-4.2,3.09-8.1,5.09-12.9l6.8-16.19h17.09L227.22,40.38V68.47Z"/><path class="cls-1" d="M263.2,51.17l-4.8,17.3H242.61L263.2,1.1h20l20.89,67.37H287.69l-5.2-17.3Zm17.09-11.39L276.1,25.49c-1.2-4-2.4-9-3.4-13h-.2c-1,4-2,9.1-3.1,13l-4,14.29Z"/><path class="cls-1" d="M370,42.68c-.3-8.1-.6-17.89-.6-27.69h-.3c-2.09,8.6-4.89,18.19-7.49,26.09l-8.2,26.29H341.56l-7.2-26.09c-2.2-7.9-4.5-17.49-6.09-26.29h-.2c-.4,9.1-.7,19.49-1.2,27.89l-1.2,25.59h-14.1l4.3-67.37h20.29l6.6,22.49c2.1,7.79,4.2,16.19,5.7,24.09h.3c1.89-7.8,4.19-16.7,6.39-24.19l7.2-22.39h19.89l3.7,67.37H371Z"/><polygon class="cls-1" points="203.53 138.49 219.63 123.26 207.88 123.26 207.88 102.93 199.77 102.93 199.77 123.26 187.43 123.26 203.53 138.49"/><polygon class="cls-2" points="191.3 119.94 191.3 99.61 203.05 99.61 186.94 84.38 170.84 99.61 183.19 99.61 183.19 119.94 191.3 119.94"/><rect class="cls-1" y="152.81" width="386.38" height="83.34"/><polygon class="cls-3" points="53.02 184.12 74.99 187.26 59.13 202.79 62.92 224.65 43.26 214.36 23.64 224.73 27.35 202.85 11.43 187.39 33.38 184.15 43.16 164.24 53.02 184.12"/><polygon class="cls-3" points="128.01 184.12 149.98 187.26 134.12 202.79 137.91 224.65 118.25 214.36 98.63 224.73 102.34 202.85 86.42 187.39 108.37 184.15 118.16 164.24 128.01 184.12"/><polygon class="cls-3" points="203.01 184.12 224.97 187.26 209.11 202.79 212.91 224.65 193.24 214.36 173.62 224.73 177.33 202.85 161.41 187.39 183.36 184.15 193.15 164.24 203.01 184.12"/><polygon class="cls-3" points="278 184.12 299.97 187.26 284.1 202.79 287.9 224.65 268.24 214.36 248.61 224.73 252.32 202.85 236.4 187.39 258.36 184.15 268.14 164.24 278 184.12"/><polygon class="cls-3" points="352.99 184.12 374.96 187.26 359.1 202.79 362.89 224.65 343.23 214.36 323.6 224.73 327.31 202.85 311.39 187.39 333.35 184.15 343.13 164.24 352.99 184.12"/></g></g></svg>