<svg xmlns="http://www.w3.org/2000/svg" viewBox="0 0 840.86 845.07"><defs><style>.cls-1{fill:#d3e3ff;}.cls-2{fill:#8bb6ff;}.cls-3{fill:#5997ff;}</style></defs><g id="Layer_2" data-name="Layer 2"><g id="Industry"><polygon class="cls-1" points="253.7 400.29 491.91 178.16 520.25 390.33 785.27 191.19 799.83 767.95 772.25 818.5 264.42 818.5 253.7 400.29"/><path class="cls-2" d="M545.41,781.49H447c-7.37,0-7.38,0-7.38-7.53q0-74.22,0-148.43c0-11.26,3.71-20.8,12.88-27.88,5.69-4.39,12.24-5.94,19.18-5.95q73.71-.09,147.43,0c19.6,0,31.94,14.55,32,32.35.2,50.81,0,101.62.2,152.42,0,5.19-2.92,5.06-6.44,5.06Z"/><path class="cls-1" d="M154.24,781.46c-19.67,0-39.33.15-59-.05-12.82-.12-23.18-5.43-28.5-17.36a42.4,42.4,0,0,1-3.44-18.34c1.23-30.63,3.08-61.23,4.78-91.84q3.87-69.61,7.83-139.22c1.37-24.79,2.49-49.59,3.83-74.37,2.54-46.58,5.21-93.16,7.71-139.74,1.76-32.77,3.31-65.56,5-98.33,1.74-33.45,3.4-66.89,5.47-100.31.44-7.05,1.38-14.47,4.1-20.87,5.22-12.27,16.09-17.44,28.91-17.81,15.65-.45,31.33-.36,47,0,17.52.34,31,11.81,32.32,28.44.48,6,1.23,11.94,1.55,17.92,1.63,30.95,3.13,61.9,4.75,92.85q2.34,44.91,4.82,89.83,3.85,69.36,7.84,138.72,1.64,28.95,3.15,57.89c2.37,46.26,4.63,92.52,7,138.78q3,58.39,6.31,116.78c.62,11.09-1.14,21.29-10,29a32.84,32.84,0,0,1-22.45,8.1c-19.67-.06-39.33,0-59,0Z"/><path class="cls-3" d="M840.32,153.79c-1.09-4.43-2.3-9.16-4.79-12.87-10.91-16.24-31.73-19.09-47-6.2-27.85,23.48-55.39,47.34-83,71.06Q628,272.21,550.54,338.68c-1.17,1-2.5,1.81-4.56,3.3-.25-3.27-.57-5.53-.57-7.79q0-43.76,0-87.5,0-44,0-88c0-12.43-5.81-22-16.36-27.86-11.18-6.21-23.1-6-33.37,2s-19.81,17.23-29.53,26.07c-44.92,40.86-132,124.09-177,164.9-.39.35-1.14,1.1-2.15,2.14q-.8-15.78-1.6-31.55c-1-18.8-2-37.6-3.05-56.4q-4-72.86-8.05-145.71c-.66-12.08-3-23.76-8.12-34.75C249.17,21.4,220.81,2,180.86.3c-15.64-.66-31.33,0-47-.27C114-.35,95.61,4.3,79,15.24c-25.75,17-40.28,40.89-43.42,71.58-.71,7-.77,14-1.16,21Q30.6,176.41,26.77,245c-1.38,25.29-2.46,50.59-3.85,75.88-2.55,46.41-5.33,92.81-7.83,139.22-2.38,44.09-4.48,88.19-6.77,132.28C7.27,612.52,6,632.64,4.94,652.77,3.23,684.88,1.27,717,.06,749.1c-.9,24.21,7.8,45.34,23.76,63.31C40.5,831.2,61.31,842.9,86.68,844c22.61.94,45.29,1,67.94,1,18.5,0,37,0,55.5,0a125.66,125.66,0,0,0,14.88-.93c36.88.32,95,.64,96.08.92a5.77,5.77,0,0,0,1.5,0q209.49,0,419,0c18.76,0,36.74-3.53,53-13.56,18.68-11.56,32.21-27.34,40.24-48,4.89-12.57,6.07-25.46,6.07-38.68q0-290.49,0-581C840.81,160.42,841.1,157,840.32,153.79ZM154.24,781.48v0c-19.67,0-39.33.15-59-.05-12.82-.12-23.18-5.43-28.5-17.36a42.4,42.4,0,0,1-3.44-18.34c1.23-30.63,3.08-61.23,4.78-91.84q3.87-69.61,7.83-139.22c1.37-24.79,2.49-49.59,3.83-74.37,2.54-46.58,5.21-93.16,7.71-139.74,1.76-32.77,3.31-65.56,5-98.33,1.74-33.45,3.4-66.89,5.47-100.31.44-7.05,1.38-14.47,4.1-20.87,5.22-12.27,16.09-17.44,28.91-17.81,15.65-.45,31.33-.36,47,0,17.52.34,31,11.81,32.32,28.44.48,6,1.23,11.94,1.55,17.92,1.63,30.95,3.13,61.9,4.75,92.85q2.34,44.91,4.82,89.83,3.85,69.36,7.84,138.72,1.64,28.95,3.15,57.89c2.37,46.26,4.63,92.52,7,138.78q3,58.39,6.31,116.78c.63,11.28-1.2,21.64-10.5,29.42a34.12,34.12,0,0,1-22.07,7.7C193.5,781.44,173.87,781.48,154.24,781.48Zm490.62,0H447c-7.37,0-7.38,0-7.38-7.53q0-74.22,0-148.43c0-11.26,3.71-20.8,12.88-27.88,5.69-4.39,12.24-5.94,19.18-5.95q73.71-.09,147.43,0c19.6,0,31.94,14.55,32,32.35.2,50.81,0,101.62.2,152.42C651.31,781.63,648.38,781.5,644.86,781.5Zm132.95-31.1a32.1,32.1,0,0,1-31.63,31c-8.33.21-16.66.09-25,.07-6.75,0-7-.29-7-7.08,0-31.83.05-63.66,0-95.5q-.06-31.49-.44-63c-.16-13.26-4.14-25.68-10.56-37C684,544.94,654.61,528,615.58,528c-46.17,0-92.34.29-138.5-.13-24.06-.22-45.62,6.09-64.56,21-15.36,12-26.33,27.52-31.58,46.15-3,10.56-4,22-4.11,33-.41,48.83-.17,97.67-.18,146.5,0,6.77-.19,7-7,7-2.78,0-33.31,0-58.57,0a5.13,5.13,0,0,1-4.88-6.67l0-.07c4.05-13.43,3.69-27.3,2.88-41.15q-2.73-46.65-5.3-93.31c-1.31-24.13-2.35-48.26-3.69-72.38-2.51-45.25-5.27-90.48-7.72-135.73q-.63-11.7-1.23-23.4c18-17.22,67.83-66.32,76.67-74.38q53-48.26,106-96.44c2-1.77,4.45-2.95,6.69-4.41.5,2.66,1.44,5.32,1.44,8q.13,82.5.09,165c0,8.58,1,16.85,6.33,24.15,10.37,14.23,32.42,17.07,47.31,4.22,41.17-35.56,82.62-70.8,123.93-106.2q56.29-48.21,112.54-96.48a45.75,45.75,0,0,1,4.41-2.95l1.42.77v7.87q0,252.24,0,504.49C777.89,745.07,777.94,747.74,777.81,750.4Z"/><path class="cls-3" d="M154.62,845c0,.07,0,.14,0,0Z"/></g></g></svg>