<svg xmlns="http://www.w3.org/2000/svg" viewBox="0 0 705.53 663.57"><defs><style>.cls-1{fill:#5997ff;}.cls-2{fill:#d3e3ff;}.cls-3{fill:#8bb6ff;}</style></defs><g id="Layer_2" data-name="Layer 2"><g id="Internship"><path class="cls-1" d="M662.69,450.78,623.06,476c2.93,6,5.92,11.75,8.5,17.64,10.7,24.42,15.4,50.19,16.74,76.65.52,10.31.79,20.64,1,31s-5,15.44-15.4,16.24c-17.41,1.35-35,2-52.16,4.68C561,625.44,541.14,632,524.24,645c-4.4,3.39-8,8-11.43,12.43-6.24,7.92-17.34,8.43-23,.15-8.66-12.74-21.06-20.17-34.82-25.7-24.1-9.69-49.4-13.31-75.2-14.08-4.33-.13-8.67-.1-13-.45-8.51-.69-13.59-6.19-13.69-14.79-.34-30.77,2-61.23,10.91-90.89a26,26,0,0,0,.44-3.22h-7q-157.73,0-315.45,0c-13.35,0-25-3.57-33.68-14.21A34.49,34.49,0,0,1,.26,471.72q.06-38.49,0-77c0-94.66.4-189.31-.27-284-.17-24.3,19.72-40.4,40.23-40.17,45.49.52,91,.17,136.48.17h6.75c0-6.4-.19-12.49,0-18.56.28-7-.07-14.16,1.62-20.8C190,12.25,206,.33,227,.2q69.48-.4,139,0c25.77.14,44.57,19.05,43.55,44.45-.34,8.46-.06,16.95-.06,26.15h6.08c45.66,0,91.32.08,137,0,16.12,0,28.71,6.38,36.06,20.61,3,5.92,4.34,13.37,4.36,20.14q.45,114,.07,228c0,4.53,1.5,6.68,5.31,8.75,32.61,17.74,64.93,36,97.73,53.41,11.57,6.14,13.24,21.11,1.13,27.17-4.6,2.29-5.54,5.58-5.49,10.38.23,23.33,0,46.66.23,70a13.63,13.63,0,0,0,2.77,7.5c5.16,6.87,7.32,14.24,4.46,22.49-4.72,13.59-14.36,24.17-22.58,37.52-7.41-12.58-14.67-23.74-20.71-35.53-4.9-9.58-2.37-18.66,5.32-26.37a6.86,6.86,0,0,0,2.18-4.13c.12-19.49,0-39,0-58.48C663.37,451.86,663.11,451.59,662.69,450.78Zm-98.21-121.4c.14-2.18.31-3.63.31-5.09q0-106.71,0-213.43c0-8.73-3.32-11.91-12.27-11.91q-255.92,0-511.84,0c-9.27,0-12.37,3.1-12.37,12.26q0,44.24,0,88.47,0,48.49,0,97c0,8.17,3.95,12.73,12,13.86a50.88,50.88,0,0,0,7,.26c133.46,0,266.92-.19,400.37.25,16.13.06,30.9-1.62,44.27-11.21,6-4.29,12.33-3.61,18.78,0,15.93,9,32,17.72,48.08,26.54C560.51,327.31,562.23,328.19,564.48,329.38ZM28.3,337.75V466.64c0,11.07,2.4,13.47,13.51,13.47H372.27c3,0,6.23.6,6.83-4-1.1-.76-2.29-1.62-3.53-2.41Q347.76,455.93,320,438.2c-6-3.86-12.25-7.49-17.95-11.79-7.69-5.8-7.29-16.41.48-22.16a44.06,44.06,0,0,1,5.1-3.13l106.79-58.79c1.46-.81,2.87-1.71,4.31-2.56l-.42-.83h-6q-180.23,0-360.45-.05C44.25,338.89,36.65,338.17,28.3,337.75Zm310.19,78.59c.9.69,1.4,1.13,2,1.49Q419.3,467.9,498.11,518c2.89,1.84,4.67,1,7.05-.51q77.3-49.24,154.66-98.41c1.29-.82,2.5-1.75,4-2.82C610.27,386.86,557.19,357.66,504,328.61a7,7,0,0,0-5.72.14c-14,7.42-27.78,15.1-41.63,22.71Zm64.87,74.93c-17.13,31-21.28,64-21.89,98,43.26,3.06,85,9.39,119.78,37.7,34.82-28.56,76.79-34.63,119.86-37.74-1.06-34.32-5-67.48-22.12-98l-5.37,3.37c-27.28,17.3-54.63,34.48-81.79,52-7.35,4.74-13.82,4.88-21.22.06-21.5-14-43.24-27.56-64.9-41.3C418.43,500.77,411.13,496.18,403.36,491.27ZM381.23,70.51c0-10.58.2-20.72-.09-30.85C381,34.39,376.47,30,370.81,29a38.5,38.5,0,0,0-7-.51q-67.44,0-134.88,0a30.89,30.89,0,0,0-6.46.45c-5,1.1-9.74,3.81-10.08,9.06-.69,10.72-.21,21.51-.21,32.54Z"/><path class="cls-2" d="M564.48,329.38c-2.25-1.19-4-2.07-5.67-3-16-8.82-32.15-17.53-48.08-26.54-6.45-3.64-12.79-4.32-18.78,0-13.37,9.59-28.14,11.27-44.27,11.21-133.45-.44-266.91-.24-400.37-.25a50.88,50.88,0,0,1-7-.26c-8.06-1.13-12-5.69-12-13.86q0-48.48,0-97,0-44.24,0-88.47C28.3,102.05,31.4,99,40.67,99q255.92,0,511.84,0c9,0,12.27,3.18,12.27,11.91q0,106.71,0,213.43C564.79,325.75,564.62,327.2,564.48,329.38Zm-267.72-61a28.18,28.18,0,1,0-.69-56.36,28.18,28.18,0,0,0,.69,56.36Z"/><path class="cls-2" d="M28.3,337.75c8.35.42,16,1.14,23.55,1.14q180.23.11,360.45.05h6l.42.83c-1.44.85-2.85,1.75-4.31,2.56L307.58,401.12a44.06,44.06,0,0,0-5.1,3.13c-7.77,5.75-8.17,16.36-.48,22.16,5.7,4.3,11.91,7.93,17.95,11.79q27.8,17.76,55.62,35.46c1.24.79,2.43,1.65,3.53,2.41-.6,4.64-3.86,4-6.83,4H41.81c-11.11,0-13.51-2.4-13.51-13.47V337.75Z"/><path class="cls-3" d="M338.49,416.34l118.2-64.88c13.85-7.61,27.67-15.29,41.63-22.71a7,7,0,0,1,5.72-.14c53.15,29.05,106.23,58.25,159.79,87.69-1.51,1.07-2.72,2-4,2.82q-77.34,49.2-154.66,98.41c-2.38,1.52-4.16,2.35-7.05.51q-78.75-50.23-157.66-100.21C339.89,417.47,339.39,417,338.49,416.34Z"/><path class="cls-3" d="M403.36,491.27c7.77,4.91,15.07,9.5,22.35,14.12,21.66,13.74,43.4,27.33,64.9,41.3,7.4,4.82,13.87,4.68,21.22-.06,27.16-17.5,54.51-34.68,81.79-52l5.37-3.37c17.16,30.47,21.06,63.63,22.12,98-43.07,3.11-85,9.18-119.86,37.74-34.8-28.31-76.52-34.64-119.78-37.7C382.08,555.26,386.23,522.26,403.36,491.27Z"/><path class="cls-1" d="M296.76,268.34a28.18,28.18,0,1,1,27.91-28.48A28.34,28.34,0,0,1,296.76,268.34Z"/></g></g></svg>