<svg xmlns="http://www.w3.org/2000/svg" viewBox="0 0 849.36 544.11"><defs><style>.cls-1{fill:#8bb6ff;}.cls-2{fill:#d3e3ff;}.cls-3{fill:#5997ff;}</style></defs><g id="Layer_2" data-name="Layer 2"><g id="Join_hAnds" data-name="Join hAnds"><polygon class="cls-1" points="163 12.29 229.25 53.14 81.17 316.62 11.6 261.48 163 12.29"/><polygon class="cls-1" points="693.94 12.29 619.38 57.22 767.47 316.62 841 272.05 693.94 12.29"/><path class="cls-2" d="M632.44,94,603,107.77l-105.19-25-143,17-28.15,25.85L216.82,92,120.43,280.88,163,336s-37,51.39,28.21,68.43c0,0-2.81,62.3,58.47,54.13,0,0,20.86,59,58.05,31.66,0,0,28,75.61,68.71,19.07L481.51,525l39.83-41.48,44.94-4.33,14.29-38.42,43.92-13.81,8-31.66,43.11-13.61L668.64,333,742,272.05Z"/><path class="cls-3" d="M845.94,254.93,709.9,13.32A26.09,26.09,0,0,0,687.25,0,25.64,25.64,0,0,0,673.9,3.76L618.64,37.45a27,27,0,0,0-9.26,36.09l7.67,13.63c-10.28,3.42-20.25,5.46-28.4,4.78-8.85-.74-20.29-3.43-33.54-6.54-23-5.41-51.72-12.15-82.92-12.15H470c-45.79.44-125.21,4.81-142.5,29.13-2.25,3.18-5,7-7.9,11-4.56-.76-9.42-1.5-14.69-2.28-15.17-2.24-36-5.31-43.21-9.43-6-3.4-16.91-10.11-28-17l6.23-11a27,27,0,0,0-9.24-36.09L175.44,3.75A25.74,25.74,0,0,0,162.09,0a26,26,0,0,0-22.65,13.34L3.41,255A27.09,27.09,0,0,0,12.66,291L68,324.74a25.6,25.6,0,0,0,13.32,3.74,26.11,26.11,0,0,0,22.67-13.34l10.93-19.42,9.9,11c1.57,1.95,10.85,13.51,23.54,29.36l-3.79,5.14c-14.06,19.12-9.16,48.14,10.92,64.69a49.57,49.57,0,0,0,27.43,11.34c-1.1,15.37,5.49,31.78,18.79,42.75a49,49,0,0,0,30.94,11.48,43.92,43.92,0,0,0,8.08-.81,52.11,52.11,0,0,0,17.53,27.84,49,49,0,0,0,31,11.49,42.44,42.44,0,0,0,13.3-2.13,52.34,52.34,0,0,0,16.66,24.76,49.12,49.12,0,0,0,31,11.48,40.43,40.43,0,0,0,33-16.33l6.84-9.26c28.57,9.93,46.32,13.33,49.89,14a127,127,0,0,0,28.34,3.36c10.77,0,22.77-1.62,32.84-7.06,14.89-8,25.55-21.42,31.24-30,9.6.5,24.54-.16,35.42-7.29,14.29-9.36,19.37-25.64,21.11-37.5,10.34-.45,24-2.68,33.56-10.41,13.24-10.76,17.48-24.8,18.42-36.14,16.64,1.15,36.63-3.57,48.07-24.52,8.39-15.41,8.33-31.45.36-46a130.89,130.89,0,0,0,22.62-16.59c5.48-5,9.43-9.11,12.93-12.77a144.64,144.64,0,0,1,10.6-10.33l10,17.82a26.08,26.08,0,0,0,22.65,13.35,25.63,25.63,0,0,0,13.35-3.76L836.7,291C848.83,283.63,853,267.45,845.94,254.93ZM632.44,60.12l54.61-33.29L822.88,268.35l-54.6,33.28ZM705.55,289.3c-3.33,3.5-6.76,7.11-11.54,11.42a100.3,100.3,0,0,1-22.75,15.8l-.18.1-13.47-11.1-.23-.18c-.82-.69-12.87-10.79-38.32-29.64-17.33-12.85-40.85-29.72-71.5-50.59-4-2.69-17-11.11-19.39-12.59-45.23-28.25-100.58-55.94-103.26-57.28a13.34,13.34,0,0,0-5.92-1.4,13.92,13.92,0,0,0-4,.61l-34.7,11.05a13.32,13.32,0,0,0-7.34,5.79c-.3.49-30.51,49.51-75.19,53-2.13.21-4.1.33-5.94.33a23.16,23.16,0,0,1-6.46-.73c-.18-.46-1.27-3.94,1.7-14.61,9-17.68,57.13-84.54,60-88.5l2.15-3c6.08-8.16,54.1-17.34,121.11-18h1.95c28.09,0,54,6.08,76.82,11.46,14.3,3.34,26.61,6.24,37.43,7.14,13.27,1.11,28.84-2.54,43.73-7.92L722.14,273.8C721.38,274.4,709.65,285,705.55,289.3ZM81.07,301.65,26.54,268,162.3,26.84l54.52,33.7ZM361.77,512a14.17,14.17,0,0,1-11.65,5.55,22.63,22.63,0,0,1-14.1-5.42c-6.32-5.2-9.6-12.89-9.28-19.75a15.66,15.66,0,0,1,2.83-8.69h0l2.3-3.13,8.27-11.22,17-23.07a14.2,14.2,0,0,1,11.67-5.56,22.6,22.6,0,0,1,14.11,5.42c9.24,7.6,12.18,20.63,6.44,28.45l-8.92,12.09-16.32,22.12Zm-72.58-28.55A22.46,22.46,0,0,1,275.08,478a25.36,25.36,0,0,1-9.37-18,18.13,18.13,0,0,1,.86-6.13,14.52,14.52,0,0,1,2.09-4.32l9.59-13,36.37-49.35a12.58,12.58,0,0,1,3.53-3.28,15.34,15.34,0,0,1,8.14-2.28,22.52,22.52,0,0,1,14.07,5.41c9.25,7.61,12.21,20.65,6.45,28.47l-30.88,41.9-15.08,20.49a12.82,12.82,0,0,1-1,1.1A14.4,14.4,0,0,1,289.19,483.49Zm-78.77-69.43a14.78,14.78,0,0,1,1.67-3l13.64-18.5.67-.9,11.41-15.47c0-.06.07-.12.11-.17l31.17-42.3a14.26,14.26,0,0,1,11.71-5.56,22.45,22.45,0,0,1,14.08,5.44c9.27,7.59,12.2,20.62,6.44,28.46l-2.48,3.37a39.16,39.16,0,0,0-5.58,6.05l-36.86,50-9.09,12.33a39.11,39.11,0,0,0-3.91,6.6,13.24,13.24,0,0,1-2.9,2.39,15.5,15.5,0,0,1-7.9,2.12,22.37,22.37,0,0,1-14-5.4C210.41,432.81,207.16,421.91,210.42,414.06Zm-44.91-56.42c.15-.22.22-.46.38-.68l15.86-21.52,2.49-3.37a14.22,14.22,0,0,1,11.69-5.54A22.49,22.49,0,0,1,210,332c9.23,7.57,12.17,20.53,6.48,28.36a.47.47,0,0,0,0,.1l-7.13,9.65-2,2.68-9.27,12.56a13.2,13.2,0,0,1-6.74,4.8,16.55,16.55,0,0,1-4.93.76,22.38,22.38,0,0,1-14.08-5.42C163.34,378,160.37,365.51,165.51,357.64Zm500.05,12.61c-7.26,13.33-22.44,11.54-30,9.67l-125.06-75.1a13.27,13.27,0,0,0-13.66,22.76l117.47,70.54c.62,5.95.45,17.47-8.66,24.88-4.8,3.87-17.06,4.86-25.36,4.45L474.65,366.31a13.26,13.26,0,1,0-13.28,23L562.77,448c-.8,7.15-3.19,17.19-9.6,21.39-5.5,3.61-18.35,3.55-25.68,2.36-.46-.08-.92,0-1.38,0l-88.24-42.6A13.27,13.27,0,1,0,426.33,453L505.11,491c-4.21,5.13-9.87,10.76-16.63,14.39-12.39,6.67-35,3.13-42.61,1.22-.39-.11-.78-.18-1.17-.25s-14.05-2.39-38.17-10.31l4.21-5.71c14.08-19.14,9.17-48.16-10.94-64.7a49.92,49.92,0,0,0-24.43-10.95c3.29-16.82-3.24-35.87-18.12-48.12a49.7,49.7,0,0,0-26.66-11.27,51.24,51.24,0,0,0-18.84-42.22,48.93,48.93,0,0,0-31-11.48A40.58,40.58,0,0,0,247.73,318l-7.49,10.16a52.07,52.07,0,0,0-13.35-16.66,49.06,49.06,0,0,0-31-11.47,40.61,40.61,0,0,0-31.22,14.14c-11.46-14.31-19.3-24.07-19.49-24.31s-.31-.37-.48-.55L128.6,271.34l92.1-163.57c11,6.84,21.73,13.47,27.93,17,11.56,6.56,32.33,9.63,52.42,12.59l1.06.16c-15,20.95-31.05,44.24-39.39,61a12.94,12.94,0,0,0-.86,2.19c-3.24,11.17-6.55,27.39,2.2,39.05,5.68,7.56,15,11.38,27.74,11.38,2.64,0,5.52-.16,8.29-.44,49.63-3.83,83.05-47.16,92.73-61.33l25-8c14.73,7.52,60.7,31.31,97.9,54.64,1.18.76,15.84,10.28,16.89,11,31.93,21.78,56.22,39.29,73.6,52.23,11.7,8.92,23.84,18.32,33.65,26.05l.51.41,19,15.66C672.17,353.78,669.08,363.77,665.56,370.25Z"/></g></g></svg>