<svg xmlns="http://www.w3.org/2000/svg" viewBox="0 0 903.39 804.08"><defs><style>.cls-1{fill:#8bb6ff;}.cls-2,.cls-6{fill:#d3e3ff;}.cls-2{opacity:0.33;}.cls-3{fill:#5997ff;}.cls-4{fill:#7691fe;}.cls-5{fill:#7692fe;}.cls-7{fill:none;stroke:#5997ff;stroke-miterlimit:10;stroke-width:25px;}</style></defs><g id="Layer_2" data-name="Layer 2"><g id="Live"><rect class="cls-1" x="11.98" y="193.91" width="872.65" height="413.25" rx="51.74"/><path class="cls-2" d="M174.22,323.06c10.92-9.24,23-16.76,35.52-23.68a218.29,218.29,0,0,1,41.06-17.6,301,301,0,0,1,45.13-9.91c13.83-2.06,27.6-1.73,41.42-1.74q256-.09,511.93,0a43.46,43.46,0,0,0,22.39-6.46c2.81-1.65,4.05-3.59,3.94-6.85-.2-6.33-.05-12.68-.06-19,0-2.24-.1-4.52,3.09-4.72.69-3.26,2.67-5.72,5.06-7.92.85-3.55,7.64,10.73,6.11-2.65,1.7.69,2.06,10.27,3.7,9.8.07-1.47,1.91-8.42-.87-12.27-1.33-1.84-3.56-1.87-4.57-3.6-8.68-14.79-21.24-22.78-39-22.49-14.53.24-39.74,0-54.27,0-.05,4.45-.16,8.56-4.72,10.84l-.16.17-.23-.2c-1.56,4.58.56,2.78-3.55,1.1-3.22,0-2.44,3.9-5.65,3.9q-361.62,0-723.23,0c-4.21,0-8.46-.37-12.65.49-.5,2.85-2.41,3-4.72,2.41l-2.45.22c-1.58,3.73-4.52,5.84-8.36,6.91l.18.24-.16-.26c.37,2.19-.75,3.12-2.81,3.26l-.26,1.47c.49,2.27.25,4.14-2.6,4.56l-.25,2c1.77,1.42,1.06,3.4,1.06,5.14q0,165.18,0,330.34c0,1.74.72,3.73-1.14,5.1l.39,2.93c2.15.34,3,1.53,2.47,3.64l.15,1.44c3.93,1.41,5.79,4.6,7.25,8.14a.35.35,0,0,0,.54.08c3.92,1.77,9,1.23,11.74,5.41a196,196,0,0,0,28.36.09c.22-5,4.19-8.21,6.2-12.34,2.89-5.94,2.47-12.15,2.39-18-.25-18.11-.92-36.19.44-54.31.73-9.91,1-19.86,2.18-29.75a208,208,0,0,1,8.29-38.75A214,214,0,0,1,106.06,408c6.79-13.5,14-26.89,23.53-38.82Z"/><path class="cls-3" d="M873.69,233.43a14.08,14.08,0,0,1,4-6.73l8.38-3.27a8.91,8.91,0,0,0,3.05-.47,2,2,0,0,1,.92-.06c8.58,1.42,13.37,6.91,13.38,15.62q0,164.94,0,329.89c0,22.89-17.16,44.63-37.26,51.86a71.33,71.33,0,0,1-24.42,4.05q-390.12,0-780.23,0c-24.18,0-42.69-9.89-54.63-31C2.72,586.08,0,578.21,0,569.63Q0,401.94,0,234.25c0-2.31.1-4.62.17-6.93A2.13,2.13,0,0,1,1,225.73a3.52,3.52,0,0,0,1.32-3.84l1-3.83c2.26-2.72,3-6.16,4.31-9.36,0,0,0-.09,0-.13s.11-.35.16-.52a1.89,1.89,0,0,1,1-1.13,2.14,2.14,0,0,0,1.2-2.13.36.36,0,0,0,.17-.51A2.71,2.71,0,0,0,12.09,202l-.27-.34.29.32c1.27-.2,1.7-1.07,1.76-2.23l0,0a1.74,1.74,0,0,0,1.86-1.11l4.56-4.84A5.93,5.93,0,0,0,23,192l3.86-3.25c4.2-2.16,8.77-3.54,12.9-5.86l6.2-1.83c5.33-.37,10.66-1,16-1q358.28-.08,716.55-.15c8.62,0,15.7,1.89,20.52,9.44a.4.4,0,0,0,.1.59,2.44,2.44,0,0,0,0,.65L798,201.08l-1.66,4.35.22.16-.2-.19-1.32.68a38.8,38.8,0,0,1-17.9,4.31h-.09q-355.92,0-711.83,0c-4.15,0-8.33-.37-12.45.48a4,4,0,0,0-4.19,1.67,2,2,0,0,1-1.46.83l-1.13.11a2.36,2.36,0,0,0-.54.12c-3.48,1.29-6.58,3-8,6.8l.17.24-.15-.25c-1.65.37-2.72,1.23-2.77,3l-1.2,2.34a3.91,3.91,0,0,0-1.65,3.67l-.63,2.83c-1.26,2-.72,4.41-.72,6.6q-.07,163.07,0,326.11c0,2.15-.55,4.47.86,6.44l.59,3.22a2.66,2.66,0,0,0,1.55,3.19,2,2,0,0,1,1,1.57h0a2.4,2.4,0,0,0,.12.53c1.31,3.53,3.24,6.53,7,7.87a.33.33,0,0,0,.52.07c2.86,3.93,7.1,4.9,11.56,5.41a188.16,188.16,0,0,0,27.79.1h.24c2.12.12,4.23.33,6.34.33q374.82,0,749.64,0c3,0,6,.14,9-.1A28.06,28.06,0,0,0,866,584.2c5.63-6.21,6.79-13.74,6.83-21.78.51-109.51-1.15-219,.85-328.53A2.4,2.4,0,0,1,873.69,233.43Z"/><path class="cls-3" d="M331.31,695.42c.75,5.67-2.91,9.52-6.49,13.2-8.55,8.8-17.4,17.32-26,26.09-10.87,11.09-23.21,6.14-27.36-3.56-2.63-6.15-.88-11.72,3.27-16.09,10.06-10.62,20.52-20.88,31-31.11,4.76-4.65,10.87-5.44,16.67-2.9S331.88,688.28,331.31,695.42Z"/><path class="cls-3" d="M572,694.6c-.4-6.75,3.41-11.19,9-13.59s11.65-1.82,16.26,2.67C608,694.11,618.77,704.55,629,715.49c6.08,6.53,5.29,15.16-.75,21s-14.55,6.43-21,.3c-11-10.38-21.44-21.3-32.08-32C572.32,702,571.84,698.39,572,694.6Z"/><path class="cls-3" d="M572.05,108.54c-.4-4,1.16-7.51,4.15-10.49,10.09-10.09,20-20.31,30.31-30.21,6.89-6.64,15.4-6.54,21.76-.3s6.7,14.26.08,21.32C618.25,99.65,607.62,110,597,120.27a13.64,13.64,0,0,1-15.79,2.6C575.87,120.42,571.47,116.16,572.05,108.54Z"/><path class="cls-3" d="M331.3,108.76c.42,7.39-3.45,11.77-9.33,14.25a13.86,13.86,0,0,1-15.77-2.87c-10.73-10.46-21.42-21-31.75-31.84-5.93-6.22-5.38-14.66.49-20.59s14.83-6.63,21-.7c10.81,10.31,21.22,21,31.76,31.64A12,12,0,0,1,331.3,108.76Z"/><path class="cls-4" d="M468.18,757.56c0,9.48.18,19-.06,28.44-.18,7-3.09,12.25-9.44,16.28-7.62,4.85-20.38-.51-22.75-11.19a32.06,32.06,0,0,1-.71-6.92c-.06-18.46,0-36.92,0-55.38,0-7.43,2.38-13.49,9.07-17.52,10.2-6.16,22.47,3,23.35,11.91.11,1.15.53,2.29.53,3.44,0,10.31,0,20.63,0,30.94Zm-28.65-.94c0,10.82.22,21.65-.11,32.47-.15,4.85,2,7.8,5.74,10.06,6.4,3.85,17.49,0,18.55-6.5a67.15,67.15,0,0,0,1-10.38c.1-16.82.5-33.65-.19-50.44-.25-6.2,1.48-13.87-6.57-17.91-3.81-1.91-7.73-2.29-10.92-.72-3.72,1.85-7.81,4.12-7.59,10C439.83,734.3,439.54,745.46,439.53,756.62Z"/><path class="cls-5" d="M468.18,47.63c0,9.32,0,18.65,0,28,0,9.93-4.82,16.24-14.33,18.83-5.26,1.44-15.63-3.25-18.05-12.92a20.38,20.38,0,0,1-.59-4.92c0-19.32-.09-38.63,0-57.94,0-10.54,7-18.52,16-18.65,9.52-.14,16.8,7.52,17,18.16C468.3,28,468.18,37.81,468.18,47.63Zm-28.66-.44q0,16,0,32c0,5.81,2.4,9.7,6.89,11.34,4.77,1.73,12.08.11,15.18-3.49.93-1.09,2.11-2,2.2-3.77.19-3.63.88-7.26.9-10.89q.15-25.25,0-50.48a78.17,78.17,0,0,0-1-10.89c-.64-4.3-6.56-7.48-13.37-7.41-6.52.06-10.76,4.18-10.79,10.61C439.5,25.19,439.53,36.19,439.52,47.19Z"/><path class="cls-3" d="M439.53,756.62c0-11.16.3-22.32-.11-33.46-.22-5.84,3.87-8.11,7.59-10,3.19-1.57,7.11-1.19,10.92.72,8.05,4,6.32,11.71,6.57,17.91.69,16.79.29,33.62.19,50.44a67.15,67.15,0,0,1-1,10.38c-1.06,6.5-12.15,10.35-18.55,6.5-3.77-2.26-5.89-5.21-5.74-10.06C439.75,778.27,439.53,767.44,439.53,756.62Z"/><path class="cls-3" d="M439.52,47.19c0-11,0-22,0-33,0-6.43,4.27-10.55,10.79-10.61,6.81-.07,12.73,3.11,13.37,7.41a78.17,78.17,0,0,1,1,10.89q.15,25.23,0,50.48c0,3.63-.71,7.26-.9,10.89-.09,1.75-1.27,2.68-2.2,3.77-3.1,3.6-10.41,5.22-15.18,3.49-4.49-1.64-6.88-5.53-6.89-11.34Q439.5,63.18,439.52,47.19Z"/><circle class="cls-6" cx="720.91" cy="417.13" r="99.57"/><circle class="cls-7" cx="720.91" cy="417.13" r="99.57"/><polygon class="cls-3" points="770.91 417.13 695.91 373.83 695.91 460.44 770.91 417.13"/><path class="cls-6" d="M122.23,344.08h6.64a14.2,14.2,0,0,1,14.2,14.2v96.64a14.2,14.2,0,0,0,14.2,14.2h33a14.19,14.19,0,0,1,14.2,14.19v.92a14.2,14.2,0,0,1-14.2,14.2h-68a14.2,14.2,0,0,1-14.2-14.2v-126A14.2,14.2,0,0,1,122.23,344.08Z"/><path class="cls-6" d="M260.09,358.28v126a14.2,14.2,0,0,1-14.2,14.2h-6.64a14.2,14.2,0,0,1-14.2-14.2v-126a14.2,14.2,0,0,1,14.2-14.2h6.64A14.2,14.2,0,0,1,260.09,358.28Z"/><path class="cls-6" d="M323.56,488.56,283.2,362.61a14.2,14.2,0,0,1,13.52-18.53h8.09a14.21,14.21,0,0,1,13.65,10.27l15.82,55c5.27,18.32,10.08,35.95,13.74,55.19h.69c3.89-18.55,8.7-36.87,14-54.51l16.66-55.81A14.2,14.2,0,0,1,393,344.08h6.76a14.2,14.2,0,0,1,13.45,18.73l-42.42,126a14.19,14.19,0,0,1-13.45,9.67H337.08A14.2,14.2,0,0,1,323.56,488.56Z"/><path class="cls-6" d="M513.58,433.16H485.19a14.2,14.2,0,0,0-14.2,14.2v8.25a14.19,14.19,0,0,0,14.2,14.19h35A14.19,14.19,0,0,1,534.42,484v.23a14.19,14.19,0,0,1-14.19,14.2H450.15a14.2,14.2,0,0,1-14.2-14.2v-126a14.2,14.2,0,0,1,14.2-14.2H517a14.2,14.2,0,0,1,14.2,14.2v.23a14.2,14.2,0,0,1-14.2,14.2H485.19A14.19,14.19,0,0,0,471,386.9v3.67a14.2,14.2,0,0,0,14.2,14.2h28.39A14.19,14.19,0,0,1,527.78,419h0A14.19,14.19,0,0,1,513.58,433.16Z"/></g></g></svg>