<svg xmlns="http://www.w3.org/2000/svg" viewBox="0 0 677.01 675.71"><defs><style>.cls-1{fill:#5997ff;}.cls-2{fill:#8bb6ff;}.cls-3{fill:#d3e3ff;}</style></defs><g id="Layer_2" data-name="Layer 2"><g id="Why_NPTEL_Cert" data-name="Why NPTEL Cert"><path class="cls-1" d="M32.63,138.47c-.12,2.61-.29,4.56-.29,6.5q0,159,0,318c0,9.2.68,9.86,10.05,9.86q55.49,0,111,0c9.69,0,15.85,4.43,18,12.66a15.64,15.64,0,0,1-13.24,19.28,41.46,41.46,0,0,1-5,.29c-37.83,0-75.66-.07-113.49,0-14.44.05-26.21-5.15-33.64-17.65C3,482.35,1.92,476,.33,470.17c-.59-2.18-.21-4.64-.21-7Q.11,252.46.05,41.74c0-9.39,1.13-18.31,6.91-26C13.92,6.49,23,.87,34.79.27,38,.11,41.12,0,44.28,0Q338.51,0,632.72,0c9.76,0,19.32.37,27.7,6.33,9.8,7,15.61,16.18,16.4,28.32.18,2.65.18,5.33.18,8q0,210-.15,420c0,7-.81,14.58-3.6,20.83C666.77,498,654.59,505,638.57,505q-43,0-86,.06c-10,0-20,.1-30-.1-10.51-.21-17.4-6.7-17.37-16s7.53-16.16,17.93-16.17q56-.09,112,0c8.91,0,9.65-.75,9.65-9.76q0-175.73,0-351.46c0-3.55.35-6.39-4.83-7.43C604.61,97,568.91,95.66,533,97.22a1028,1028,0,0,0-122.65,12.93q-49.26,8.11-98.43,16.74c-27.2,4.81-54.24,10.52-81.48,15.06-45.59,7.6-91.43,13.57-137.72,8.2-18.43-2.14-36.57-6.83-54.84-10.38C36.34,139.47,34.8,139,32.63,138.47ZM338.8,32.32h-297c-8.65,0-9.47.82-9.48,9.42,0,18.67.19,37.34-.13,56-.08,4.86,1.61,7.11,6,8.61a240.15,240.15,0,0,0,54.51,11.84c37.21,3.58,74.23.86,111.06-4.86,17.1-2.65,34.15-5.65,51.19-8.67,20-3.55,39.94-7.31,59.91-10.94,20.3-3.69,40.57-7.61,60.93-10.93,20-3.27,40.17-5.89,60.26-8.86a898.72,898.72,0,0,1,104-9.24c33.7-1,67.28.49,100.54,6.61,2.78.51,4.19-.11,4.18-3.07,0-10.16,0-20.33-.09-30.49,0-3.37-2-5.17-5.39-5.33-2.16-.11-4.33-.09-6.49-.09Z"/><path class="cls-1" d="M338.76,589.54c-10.27.42-19.58-2.68-28.6-7.34a24.46,24.46,0,0,0-9.88-2.6c-20.19-.87-36.17-9.24-47.34-26.16a35.19,35.19,0,0,0-10.66-10.83c-17.67-11.26-25.83-27.92-26.72-48.58a21.43,21.43,0,0,0-2.39-8.91c-10.16-18.94-10-37.73-.08-56.69a22,22,0,0,0,2.47-8.88c1.1-22.05,10.24-39.22,29.62-50.55a16.23,16.23,0,0,0,5.56-5.49c11.62-19.62,29.13-28.81,51.52-29.88a20.59,20.59,0,0,0,8.42-2.47c18.44-9.9,36.6-9.57,55.37-.38,6.14,3,13.68,3.27,20.63,4.5,17.14,3,29.67,12.53,39,26.91a24.74,24.74,0,0,0,7.17,7.24c14.08,9.06,23.87,21.06,26.88,37.86.85,4.72.77,9.62,1.86,14.26.93,3.95,2.81,7.71,4.49,11.45,8.19,18.16,7.05,35.77-2.68,53a14.55,14.55,0,0,0-1.86,6.54c-.43,22.57-9.77,40-29.2,51.84a19.56,19.56,0,0,0-6.19,6.22c-11.73,19-28.64,28.5-50.9,29a19.86,19.86,0,0,0-8.38,2.61C358,586.89,348.88,590,338.76,589.54ZM256.34,456.69c.76,46.48,36.21,82.35,82.19,82.31,46.22,0,81.83-35.75,82.07-82.31.24-44.63-35.34-81.7-81.8-81.92C293.59,374.56,257,410.41,256.34,456.69Z"/><path class="cls-2" d="M338.58,225.65q-121,0-241.92,0a45.19,45.19,0,0,1-8.94-.67,15.75,15.75,0,0,1-.06-30.81,37,37,0,0,1,7.44-.66q243.42,0,486.84,0c11.54,0,17.49,4,19.55,13.09,1.71,7.55-3.12,16.09-10.61,18a42.35,42.35,0,0,1-10.38,1Q459.54,225.7,338.58,225.65Z"/><path class="cls-1" d="M473.91,538.38c6.17,9.87,11.9,19,17.61,28.14,6.45,10.3,12.73,20.7,19.38,30.86,6,9.19,2.71,23.13-10.91,24.62-15.94,1.74-31.72,5-47.55,7.79-5.44.94-10.17,2.65-13.67,7.84-6.69,9.93-14.28,19.24-21.38,28.89-8.55,11.62-18.21,12.31-27.56,1.56-14.3-16.46-28.44-33.06-42.63-49.62-1-1.12-1.74-2.38-2.85-3.91,4.82-1,9.26-1.79,13.68-2.77,2.58-.57,5.41-.89,7.6-2.2,11.19-6.67,24.34-5.73,36.23-9.7,16-5.35,28.68-15.08,39.45-27.78,3.81-4.49,8.35-8.35,12.48-12.57,5.79-5.93,11.51-11.93,17.25-17.91C471.81,540.82,472.52,540,473.91,538.38Z"/><path class="cls-1" d="M333.17,614.37c-5.48,6.51-10.53,12.59-15.66,18.6q-14.44,16.89-29,33.7c-1.19,1.39-2.43,2.75-3.73,4-7.22,7.11-16.71,6.52-22.9-1.59-8-10.45-16.06-20.85-23.61-31.61a16.65,16.65,0,0,0-11.23-7.42c-9.79-1.68-19.64-3-29.45-4.61-8.18-1.32-16.42-2.42-24.47-4.3-9.19-2.15-12.89-14-7.35-22.93,10.33-16.7,20.83-33.29,31.25-49.93,1.93-3.07,3.83-6.15,6.2-9.95,1.45,1.73,2.36,3,3.46,4.1,6.64,6.49,13.32,12.92,20,19.38,2.25,2.18,4.79,4.14,6.61,6.63,12.57,17.17,28.56,29.66,49.8,33.13,13.53,2.21,25.94,7.55,39,10.89C325.42,613.33,328.86,613.65,333.17,614.37Z"/><path class="cls-2" d="M172.06,311.65c-26.15,0-52.29,0-78.44,0-10.13,0-16.09-4.47-18-13.11a15.64,15.64,0,0,1,11.11-18.15,31.19,31.19,0,0,1,7.4-.86q77.94-.08,155.88,0c11.07,0,18.25,6,18.56,15.31.31,9.47-6.37,16.45-16.55,16.76-9.15.27-18.32.09-27.48.09Q198.29,311.67,172.06,311.65Z"/><path class="cls-2" d="M505.6,311.65H427.17c-5.32,0-10.28-.9-14.13-5-4.09-4.36-5.64-9.57-4-15.21,1.74-5.92,5.64-10.17,12.06-11.34a36.55,36.55,0,0,1,6.44-.58q77.69-.06,155.37,0c10.62,0,16.54,4.26,18.55,13.06,1.72,7.55-3.1,16-10.56,18a35.24,35.24,0,0,1-8.88,1C556.56,311.69,531.08,311.65,505.6,311.65Z"/><path class="cls-3" d="M338.8,32.32h294c2.16,0,4.33,0,6.49.09,3.35.16,5.35,2,5.39,5.33.11,10.16.06,20.33.09,30.49,0,3-1.4,3.58-4.18,3.07-33.26-6.12-66.84-7.64-100.54-6.61a898.72,898.72,0,0,0-104,9.24c-20.09,3-40.23,5.59-60.26,8.86-20.36,3.32-40.63,7.24-60.93,10.93-20,3.63-39.92,7.39-59.91,10.94-17,3-34.09,6-51.19,8.67-36.83,5.72-73.85,8.44-111.06,4.86A240.15,240.15,0,0,1,38.2,106.35c-4.39-1.5-6.08-3.75-6-8.61.32-18.66.12-37.33.13-56,0-8.6.83-9.42,9.48-9.42Z"/><path class="cls-3" d="M338.73,554c-53.44.84-98.2-43.7-97.48-97.47.73-55.38,43.17-96.93,97.11-97.08,55-.14,97.27,42.69,97.5,97.74C436.08,509.75,392.94,554.45,338.73,554Z"/><path class="cls-1" d="M338.64,503.51c-25.71.4-47.24-21-46.89-46.89.35-26.63,20.77-46.62,46.71-46.69,26.47-.07,46.79,20.53,46.9,47A46.54,46.54,0,0,1,338.64,503.51Z"/></g></g></svg>