<svg xmlns="http://www.w3.org/2000/svg" viewBox="0 0 715.68 715.68"><defs><style>.cls-1,.cls-3{fill:#8bb6ff;}.cls-1,.cls-2{stroke:#5997ff;stroke-miterlimit:10;stroke-width:12px;}.cls-2,.cls-4{fill:#d3e3ff;}.cls-5{fill:#5997ff;}</style></defs><g id="Layer_2" data-name="Layer 2"><g id="Workshop"><path class="cls-1" d="M383.56,24.79h0C393-4.62,436.41,2.26,436.29,33.14h0c-.09,26.27,33.57,37.21,48.93,15.9h0c18.06-25,57.23-5.1,47.57,24.24h0c-8.21,25,20.43,45.76,41.62,30.23h0c24.91-18.24,56,12.84,37.75,37.76h0c-15.52,21.19,5.29,49.83,30.24,41.62h0c29.33-9.66,49.29,29.51,24.24,47.57h0c-21.31,15.36-10.37,49,15.9,48.92h0c30.88-.11,37.75,43.31,8.35,52.74h0c-25,8-25,43.42,0,51.44h0c29.4,9.43,22.53,52.85-8.35,52.73h0c-26.27-.09-37.21,33.57-15.9,48.93h0c25.05,18.06,5.09,57.23-24.24,47.57h0c-24.95-8.21-45.76,20.43-30.24,41.62h0c18.25,24.91-12.84,56-37.75,37.75h0c-21.19-15.52-49.83,5.29-41.62,30.24h0c9.66,29.33-29.51,49.29-47.57,24.24h0c-15.36-21.31-49-10.37-48.93,15.9h0c.12,30.88-43.3,37.75-52.73,8.35h0c-8-25-43.42-25-51.44,0h0c-9.43,29.4-52.85,22.53-52.74-8.35h0c.1-26.27-33.56-37.21-48.92-15.9h0c-18.06,25.05-57.23,5.09-47.57-24.24h0c8.21-24.95-20.43-45.76-41.62-30.24h0c-24.92,18.25-56-12.84-37.76-37.75h0c15.53-21.19-5.28-49.83-30.23-41.62h0C43.94,542.45,24,503.28,49,485.22h0c21.31-15.36,10.37-49-15.9-48.93h0c-30.88.12-37.76-43.3-8.35-52.73h0c25-8,25-43.42,0-51.44h0c-29.41-9.43-22.53-52.85,8.35-52.74h0c26.27.1,37.21-33.56,15.9-48.92h0c-25-18.06-5.1-57.23,24.24-47.57h0c25,8.21,45.76-20.43,30.23-41.62h0c-18.24-24.92,12.84-56,37.76-37.76h0c21.19,15.53,49.83-5.28,41.62-30.23h0C173.23,43.94,212.4,24,230.46,49h0c15.36,21.31,49,10.37,48.92-15.9h0c-.11-30.88,43.31-37.76,52.74-8.35h0C340.14,49.8,375.54,49.8,383.56,24.79Z"/><circle class="cls-2" cx="357.84" cy="357.84" r="252.81"/><polygon class="cls-3" points="296.75 330.32 361.81 296.62 414.4 247.31 423.59 235.35 444.02 276.71 472.55 265.47 499.17 279.26 511.42 300.71 511.42 325.73 499.17 343.09 470.57 357.84 480.27 401.3 381.72 384.96 319.42 395.18 317.89 407.94 292.36 417.14 292.36 432.96 313.9 447.26 313.9 473.33 332.4 478.92 337.29 500.37 332.4 513.64 303.59 524.37 250.49 433.99 210.15 428.69 186.15 392.13 190.74 363.02 201.46 344.11 235.17 327.77 287.25 315.01 296.75 330.32"/><polygon class="cls-4" points="443 202.16 434.57 196.54 425.63 202.16 420.02 209.56 421.81 224.62 426.77 237.64 493.89 420.37 505.94 421.73 513.29 409.13 443 202.16"/><polygon class="cls-4" points="303.59 353.81 287.25 315.01 215.76 336.45 186.15 360.96 188.7 398.75 205.57 421.73 233.63 434.5 261.1 432.96 317.89 407.94 303.59 353.81"/><path class="cls-5" d="M515.7,397.87c-.74-2.62-2.28-5.73-2.71-8.24-1-5.74-4.32-10.49-5.32-16.2-.91-5.2-3.53-10.08-5.24-15.15a7.61,7.61,0,0,1,.65-6.34c3.63-6.78,9.32-12.12,11.93-19.79a76.35,76.35,0,0,0,3.27-16.34c.92-8.27-1-16.47-4.26-24-1.15-2.68-1.86-5.71-3.75-8.17-3-3.89-5.67-7.91-9.16-11.49a41.94,41.94,0,0,0-10.44-7.29c-6.06-3.27-12.67-6.12-20-5.72-1.34.07-3.12-.28-3.17-2-.08-2.85-1.84-5.08-2.35-7.8a20.93,20.93,0,0,0-2.53-7c-2-3-2.2-6.43-3.28-9.55-1-3-2.11-6.05-3.13-9-1.17-3.42-2-7-3.57-10.26-1.76-3.77-2.1-8.19-5-11.41-2-2.26-4.23-4.39-6.45-6.48a4.29,4.29,0,0,0-2.47-1.27c-3.73-.08-7.23-1.5-11.16-.89-7.06,1.11-14.06,7.55-13.69,14.56a14.72,14.72,0,0,0,.65,4c.89,3.67.78,7.63,2.12,11,.84,2.15,1.4,4.41,2.13,6.61a5.62,5.62,0,0,1-1.39,6c-9.56,10.95-19.8,21.25-29.81,31.78a158.21,158.21,0,0,1-46.95,33.66c-13,6.23-25.94,12.57-38.91,18.87-1.72.84-3.11.62-3.82-1.29-.76-2.08-1.36-4.21-2.06-6.31a6.91,6.91,0,0,0-9.1-4.7c-5.54,1.67-11.07,3.39-16.64,5-4.55,1.3-9.09,2.81-13.46,4.48a70.27,70.27,0,0,1-10.13,3.21c-3.64.78-6.83,2.5-10.3,3.55-3.22,1-6.51,1.77-9.72,2.85-2.8.95-6,1.45-8.54,2.64-9.63,4.59-18.65,10.26-25.24,19-6.93,9.19-12.6,18.85-11.15,31.07a41.45,41.45,0,0,1,0,4.73c.87,6.55-.75,13.07,1.74,19.8,5.34,14.39,13.8,25.59,28.14,31.47,9.77,4,19.94,6.7,30.77,5.3,4-.53,7.47.27,9.76,4.55,9.66,18,19.65,35.81,29.4,53.76,4.88,9,10.94,17.31,15,26.77a11.71,11.71,0,0,0,3.74,5.23c4.79,3.4,9.05,1.09,12.94-1.12,6.81-3.87,13.86-7.37,20.9-10.61,5.23-2.41,7-6.28,7.72-10.6a85.12,85.12,0,0,0,.39-25.4,10.53,10.53,0,0,0-5.76-8.43c-3.84-2.14-7.47-3-11.72-2.13-2,.42-4.14.06-5.31-1.93s-.08-3.54.77-5.31c1.86-3.88,4.12-7.35,4-12.26-.16-6.81-7.67-15.23-15-15.82a18.26,18.26,0,0,1-7.18-2.09,3.89,3.89,0,0,1-2.3-2.55c-1.05-4.87,2.73-10.67,6.64-11.87,4.73-1.44,9.18-3.62,14-4.8,6.45-1.58,8.1-4.76,6.53-11.15-.28-1.13-.61-2.24-.95-3.35-.23-.76-.34-1.6.6-1.83,2.15-.52,4-2,6.26-2.07,4.78-.06,9.41-1.39,14-2.41,12.19-2.73,24.51-3.4,36.9-4,9.87-.48,19.46,1.54,29.16,2.7,6.91.83,13.72,2.11,20.56,3.21,13.3,2.13,26.55,4.56,39.85,6.66a8.87,8.87,0,0,1,7.31,5.68c.82,1.93,1.23,4,1.87,6,2.67,8.47,9.74,13.5,18.33,13,2.31-.13,4.61-.37,6.9-.7a8.3,8.3,0,0,0,6.2-4c2.51-4.5,5.16-8.79,5-14.55C518.62,405.1,516.75,401.59,515.7,397.87ZM474.14,273.48c1.33-1.66,3.35-1.2,5-.65,11.23,3.79,18.94,11.4,23.56,22.21,2.39,5.59,3.82,11.38,3,17.18a39.53,39.53,0,0,1-6.12,24.53,11.86,11.86,0,0,1-1,1.42c-1.73,2.05-2.68,1.86-3.66-.81q-2.28-6.23-4.36-12.52-7.55-22.77-15-45.57a13.11,13.11,0,0,0-.59-1.46C474.29,276.42,472.89,275,474.14,273.48ZM305.75,448.3a23.1,23.1,0,0,1,2.48.48c4.35,1.15,5.78,4,3.92,8.12-1.7,3.74-3.51,7.41-3.63,11.66-.26,9,5.69,15.13,14.78,15.06a6,6,0,0,0,.95,0c8.6-1.37,7.91,1.74,8.13,7.65.19,5.11-.73,10.26-1.22,15.39-.16,1.67-1.45,2.46-2.8,3.15-5.44,2.77-10.86,5.58-16.31,8.33-4.87,2.46-5.91,2.14-8.52-2.57q-10.25-18.51-20.46-37-10.38-18.81-20.73-37.62c-1.95-3.55-1.78-3.77,1.88-5.18,6.78-2.62,13.54-5.3,20.31-7.93,3.37-1.31,3.56-1.19,3.87,2.24C289.43,441.22,294.55,446.61,305.75,448.3Zm6.92-42.4c-3.14.37-5.49,1.53-8.95,2.64a11.48,11.48,0,0,0-2.7.74Q277.5,417.65,254,426a44.81,44.81,0,0,1-15.82,2.66c-10.4-.54-20.63-1.9-29.26-8.41-10.37-7.82-14.83-18.81-15.88-31.4-.27-3.24-.08-6.53-.09-9.79,0-11.48,5.54-20.35,13.36-28,5.52-5.41,12.3-9,19.35-12,2.65-1.14,5.56-1.57,8.32-2.44,6.15-1.94,12.14-4.43,18.36-6,5.5-1.4,10.78-3.41,16.26-4.84a129.82,129.82,0,0,0,14.73-4.92c2-.78,3.13-.44,3.51,1.32.76,3.56,2.74,6.67,3.23,10.38.32,2.48,1.62,4.9,2.42,7.36,1.32,4,2.29,8.25,3.84,12.13,1.88,4.71,3.29,9.58,5.21,14.26,1.06,2.57,1.54,5.34,2.43,8,1.94,5.83,4.21,11.57,5.84,17.49,1.12,4,2.66,7.92,4,11.88C314.15,404.82,313.64,405.79,312.67,405.9Zm159.85-15.67c-.08.7-.17,1.36-.75,1.72-1,.63-1.39-.54-2-1a2.68,2.68,0,0,0-.75-.52c-3.58-.7-5.66-1.08-7.68-1.35l-6.61-1.17a4.45,4.45,0,0,0-2.58-.81c-.84-.1-1.44-.29-2.22-.41q-5.55-.82-11.13-1.58l-10.68-1.89a17.78,17.78,0,0,0-5.6-1l-12.19-2.15c-.62-.13-1.24-.24-1.87-.33h0c-.51-.07-1-.12-1.55-.16L393,378.12c-.21,0-.41-.05-.62-.06h-.05c-2.21-.18-4.49.05-6.72,0a70.07,70.07,0,0,0-11,.24L360,379.78h0a33.14,33.14,0,0,0-4.92.71L344.62,382a3.18,3.18,0,0,0-1.74.51l-5,1.44h-.09a14.13,14.13,0,0,0-1.42.26l-9.47,1.67h-.06l-.16,0h0a11.06,11.06,0,0,0-3.9,1.77c-1.7,1.14-2.56.65-3.09-1.31-3.54-13.2-7.33-26.34-11.84-39.23-1.22-3.5-1.69-7.28-3.74-10.59-1.28-2.09-.16-4.24,2.28-5.38,7.31-3.42,14.65-6.8,21.89-10.35,9-4.43,18.06-8.85,26.91-13.62,4.16-2.25,8.65-3.92,12.49-6.76,2.93-2.17,5.76-4.55,8.78-6.49,4.19-2.69,7.17-6.6,11.16-9.49a105.79,105.79,0,0,0,20.49-20.05c4.58-5.78,10.22-10.48,14.67-16.3,1-1.33,2.14-1,2.69.76,4.83,15.45,10.24,30.71,15.1,46.13,4.78,15.13,10.35,30,14.83,45.26,3.24,11.05,7,22,11.2,32.85,2,5.07,3.67,10.24,5.67,15.3a2.47,2.47,0,0,1,.1.29A3.68,3.68,0,0,1,472.52,390.23Zm29.91,26.44c-2.76,1.25-6.31,0-7.73-3.57-2.52-6.23-4.57-12.65-6.76-19q-9-26.11-17.94-52.23c-4.44-12.94-9.11-25.79-13.19-38.85-2.41-7.73-4.71-15.53-8.14-22.89-1.87-4-2.34-8.45-3.85-12.61-6-16.61-11.45-33.42-17.13-50.15a20.45,20.45,0,0,1-.91-7.16c.09-4,1.32-5.29,5.55-5.35,2-.3,3.54.88,4.84,2.57,2.62,3.41,4,7.4,5.27,11.41,1.86,5.94,4.23,11.67,6.35,17.51,1.68,4.6,2.58,9.46,4.39,14.08,3.64,9.29,6.25,19,9.53,28.37q7.47,21.43,14.49,43,9.1,27.93,19,55.58c3.63,10.09,6.6,20.41,10.5,30.41C508,411,505.84,415.13,502.43,416.67Z"/></g></g></svg>